<svg xmlns="http://www.w3.org/2000/svg" viewBox="0 0 128 128" x="0px" y="0px"><title>monitor lizard, animal, pet, Reptiles, character, creature</title><path d="M40.945,124.205a11.867,11.867,0,0,1-.075-5.255,8.057,8.057,0,0,1,.591-1.683,1.033,1.033,0,0,0-1.3-1.409,12.753,12.753,0,0,0-6.925,5.852c-.35.82.14,1.69,1,1.5h.03a10.55,10.55,0,0,0-2.53,2.28c-.51.72-.23,1.68.65,1.68h9.379a.427.427,0,0,0,.341-.686A6.817,6.817,0,0,1,40.945,124.205Z"></path><rect x="89.991" y="24.577" width="3.365" height="5.163" rx="1.682" ry="1.682"></rect><path d="M117.08,69.5c-.65-17.04,2.56-35.05-.18-45.9C111.66,2.8,83.12-1.38,70.03,10.92c-2.17,1.82-10.08,3.63-15.38,13.66a9.318,9.318,0,0,1-9.16,5.14c-5.047-.568-12.255.191-17.76,5.452a3.513,3.513,0,0,1-2.269.965c-3.427.152-12.588.936-18.818,4.955a.363.363,0,0,0,.187.671c3.368.036,8.959.065,12.42-.033a1.471,1.471,0,0,1,1.37.82c.61,1.18,2.64,2.25,4.94,2.62a9.266,9.266,0,0,0,8.02-2.21,1.5,1.5,0,0,1,1.77-.26c.1.06,10.57,5.53,17.54-.34a1.5,1.5,0,0,1,1.57-.23c.2.08,20.09,8.57,32.02-3.36a1.509,1.509,0,0,1,2.12,0,1.491,1.491,0,0,1,0,2.12c-11.567,11.567-28.856,6.419-33.93,4.546a1.191,1.191,0,0,0-1.085.148,16.014,16.014,0,0,1-8.731,2.541c.029-.074.053-.155.082-.228.241-.611.053-1.3-.6-1.317a22.326,22.326,0,0,1-5.054-.794.955.955,0,0,0-1.146.618c-.065.181-.126.373-.188.564-.958-.3-1.788-.616-2.439-.89a1.212,1.212,0,0,0-1.17.147A12.244,12.244,0,0,1,27.33,48.31a14.16,14.16,0,0,1-2.23-.18,10.915,10.915,0,0,1-6.248-2.956,1.217,1.217,0,0,0-.913-.414c-4.444.077-10.884.011-13.167-.022a.352.352,0,0,0-.335.476C5.479,48.2,8.741,53.52,18.81,53.69c7.1.123,13.092-.011,17.647-.2C34.64,64.63,34.552,80.9,34.646,87.535a1.047,1.047,0,0,0,1.91.58L37.628,86.6a1,1,0,0,1,1.594-.052L40.53,88.16a1.05,1.05,0,0,0,1.84-.74C42,80.792,40.935,64.85,43.634,53.066c1.62-.124,2.486-.216,2.486-.216,6.329,6.329,18.034,2.247,21.164.992a1.342,1.342,0,0,1,1.362.2,10.2,10.2,0,0,0,1.233.89,1.341,1.341,0,0,1,.655,1.15c-.212,11.7-4.509,19.648-9.917,28.653A132.324,132.324,0,0,0,46.784,115.2a5.585,5.585,0,0,0-3.744,4.426,8.172,8.172,0,0,0,.38,4.75c.56,1.29,2,2.79,2.96,2.79H94.17a5.193,5.193,0,0,0,.77-.06c6.07-.9,17.08-11.84,18.57-23.3a1.5,1.5,0,0,1,2.98.38c-1.22,9.27-8.08,18.42-14.68,22.98h22.38a1.5,1.5,0,0,0,1.5-1.5c0-.03-.01-.06-.01-.09C127.4,110.81,117.49,80.16,117.08,69.5ZM46.81,39.55a1.5,1.5,0,0,1-1.99-.74,2.634,2.634,0,0,0-2.27-.91,2.21,2.21,0,0,0-2.14,1.49,1.513,1.513,0,0,1-1.41.99,1.372,1.372,0,0,1-.52-.1,1.506,1.506,0,0,1-.89-1.92,5.216,5.216,0,0,1,4.85-3.46,5.336,5.336,0,0,1,5.11,2.67A1.489,1.489,0,0,1,46.81,39.55ZM83.8,104.64a14.308,14.308,0,0,1,5.479,1.86,1.5,1.5,0,0,1-1.39,2.66c-3.64-1.89-4.81-1.642-6.29-1.31-4.288.963-11.92,3.96-14.27,4.62a58.958,58.958,0,0,1-13.3,1.66c-.958.035-2.519.153-3.946.333,3.228-12.643,8.983-21.32,13.1-28.186,5.284-8.8,9.87-16.47,10.309-28.407a.937.937,0,0,1,.93-.91h2.144a.952.952,0,0,1,.715.318c5.438,6.2,5.256,16.279.223,22.442a14.659,14.659,0,0,0-3.33,11.84c1.472,8.233-.555,13.178-2.784,16a.184.184,0,0,0,.208.288c1.546-.582,5.319-1.979,7.549-2.536a.663.663,0,0,0,.479-.452A42.542,42.542,0,0,1,87.6,90.16a1.5,1.5,0,0,1,2.374.15,1.578,1.578,0,0,1-.18,1.906A34.253,34.253,0,0,0,85.33,98.91a42.232,42.232,0,0,0-2.133,4.829A.674.674,0,0,0,83.8,104.64Zm4.749-72.1a8.5,8.5,0,0,1-7.52-4.531L96.8,26.064A8.5,8.5,0,0,1,88.55,32.54Zm-8.434-7.428a8.5,8.5,0,1,1,16.87-2.08C96.941,23.033,80.16,25.1,80.116,25.112Z"></path></svg>